<svg xmlns="http://www.w3.org/2000/svg" viewBox="0 0 512 512">
  <defs>
    <linearGradient id="bg" x1="0%" y1="0%" x2="100%" y2="100%">
      <stop offset="0%" style="stop-color:#4ECFA0;stop-opacity:1" />
      <stop offset="100%" style="stop-color:#1A6B4E;stop-opacity:1" />
    </linearGradient>
    <linearGradient id="leaf" x1="0%" y1="0%" x2="100%" y2="100%">
      <stop offset="0%" style="stop-color:#FFFFFF;stop-opacity:1" />
      <stop offset="100%" style="stop-color:#C8EFE0;stop-opacity:1" />
    </linearGradient>
  </defs>
  <!-- Background rounded rect -->
  <rect width="512" height="512" rx="112" fill="url(#bg)"/>
  <!-- Leaf body -->
  <path d="M256 108 C200 108, 140 158, 128 228 C116 298, 148 358, 200 390 C220 402, 238 408, 256 408 C274 408, 292 402, 312 390 C364 358, 396 298, 384 228 C372 158, 312 108, 256 108 Z" fill="url(#leaf)"/>
  <!-- Center vein -->
  <line x1="256" y1="120" x2="256" y2="400" stroke="#3DBE8F" stroke-width="10" stroke-linecap="round"/>
  <!-- Left veins -->
  <path d="M250 195 C225 185, 192 188, 175 202" stroke="#3DBE8F" stroke-width="7" stroke-linecap="round" fill="none"/>
  <path d="M250 245 C220 232, 182 235, 162 252" stroke="#3DBE8F" stroke-width="7" stroke-linecap="round" fill="none"/>
  <path d="M252 295 C228 283, 195 286, 178 302" stroke="#3DBE8F" stroke-width="7" stroke-linecap="round" fill="none"/>
  <!-- Right veins -->
  <path d="M262 195 C287 185, 320 188, 337 202" stroke="#3DBE8F" stroke-width="7" stroke-linecap="round" fill="none"/>
  <path d="M262 245 C292 232, 330 235, 350 252" stroke="#3DBE8F" stroke-width="7" stroke-linecap="round" fill="none"/>
  <path d="M260 295 C284 283, 317 286, 334 302" stroke="#3DBE8F" stroke-width="7" stroke-linecap="round" fill="none"/>
  <!-- Stem -->
  <path d="M256 400 C252 420, 244 432, 238 448" stroke="url(#leaf)" stroke-width="12" stroke-linecap="round" fill="none"/>
</svg>
