<svg xmlns="http://www.w3.org/2000/svg" viewBox="0 0 512 512">
  <defs>
    <linearGradient id="bg" x1="0%" y1="0%" x2="100%" y2="100%">
      <stop offset="0%" style="stop-color:#4ECFA0;stop-opacity:1" />
      <stop offset="100%" style="stop-color:#1A6B4E;stop-opacity:1" />
    </linearGradient>
    <linearGradient id="leaf" x1="0%" y1="0%" x2="100%" y2="100%">
      <stop offset="0%" style="stop-color:#FFFFFF;stop-opacity:1" />
      <stop offset="100%" style="stop-color:#C8EFE0;stop-opacity:1" />
    </linearGradient>
  </defs>
  <!-- Full bleed background (no radius - required for maskable) -->
  <rect width="512" height="512" fill="url(#bg)"/>
  <!-- Icon content kept within safe zone (innermost 80% = 205px–307px) -->
  <!-- Leaf body - centered, scaled to fit safe zone -->
  <path d="M256 128 C215 128, 165 168, 155 228 C145 288, 168 338, 208 364 C224 374, 240 380, 256 380 C272 380, 288 374, 304 364 C344 338, 367 288, 357 228 C347 168, 297 128, 256 128 Z" fill="url(#leaf)"/>
  <!-- Center vein -->
  <line x1="256" y1="140" x2="256" y2="372" stroke="#3DBE8F" stroke-width="9" stroke-linecap="round"/>
  <!-- Left veins -->
  <path d="M251 205 C231 196, 204 199, 190 211" stroke="#3DBE8F" stroke-width="6" stroke-linecap="round" fill="none"/>
  <path d="M251 248 C226 238, 196 241, 179 255" stroke="#3DBE8F" stroke-width="6" stroke-linecap="round" fill="none"/>
  <path d="M252 291 C233 282, 208 285, 194 297" stroke="#3DBE8F" stroke-width="6" stroke-linecap="round" fill="none"/>
  <!-- Right veins -->
  <path d="M261 205 C281 196, 308 199, 322 211" stroke="#3DBE8F" stroke-width="6" stroke-linecap="round" fill="none"/>
  <path d="M261 248 C286 238, 316 241, 333 255" stroke="#3DBE8F" stroke-width="6" stroke-linecap="round" fill="none"/>
  <path d="M260 291 C279 282, 304 285, 318 297" stroke="#3DBE8F" stroke-width="6" stroke-linecap="round" fill="none"/>
  <!-- Stem -->
  <path d="M256 372 C253 386, 248 394, 244 406" stroke="url(#leaf)" stroke-width="10" stroke-linecap="round" fill="none"/>
</svg>
